<?xml version="1.0" encoding="utf-8"?>
<!-- Generator: Adobe Illustrator 23.0.2, SVG Export Plug-In . SVG Version: 6.00 Build 0)  -->
<svg version="1.1" id="Layer_1" xmlns="http://www.w3.org/2000/svg" xmlns:xlink="http://www.w3.org/1999/xlink" x="0px" y="0px"
	 viewBox="0 0 2634.3 1620" style="enable-background:new 0 0 2634.3 1620;" xml:space="preserve">
<style type="text/css">
	.st0{fill:#E5E3DE;}
	.st1{fill:#FFF2D6;}
	.st2{fill:url(#SVGID_1_);}
	.st3{fill:#D5D2CA;}
	.st4{fill:#D7F0F6;}
	.st5{fill:url(#SVGID_2_);}
	.st6{fill:#E9F6C3;}
	.st7{fill:#FDA01B;}
	.st8{fill:#C0BBB2;}
	.st9{fill:url(#SVGID_3_);}
	.st10{fill:url(#SVGID_4_);}
	.st11{fill:#0A0C17;}
	.st12{fill:#F76C1F;}
	.st13{fill:#FA8A3F;}
	.st14{fill:#040F2C;}
	.st15{fill:url(#SVGID_5_);}
	.st16{fill:#65BDD8;}
	.st17{fill:#D3D0C8;}
	.st18{fill:url(#SVGID_6_);}
	.st19{fill:url(#SVGID_7_);}
	.st20{fill:#FBA056;}
	.st21{fill:url(#SVGID_8_);}
	.st22{fill:url(#SVGID_9_);}
	.st23{fill:url(#SVGID_10_);}
	.st24{fill:url(#SVGID_11_);}
	.st25{fill:url(#SVGID_12_);}
	.st26{fill:url(#SVGID_13_);}
	.st27{fill:url(#SVGID_14_);}
	.st28{fill:url(#SVGID_15_);}
	.st29{fill:url(#SVGID_16_);}
	.st30{fill:url(#SVGID_17_);}
	.st31{fill:url(#SVGID_18_);}
	.st32{fill:url(#SVGID_19_);}
	.st33{filter:url(#Adobe_OpacityMaskFilter);}
	.st34{filter:url(#Adobe_OpacityMaskFilter_1_);}
	.st35{mask:url(#SVGID_20_);fill:url(#SVGID_21_);}
	.st36{fill:url(#SVGID_22_);}
	.st37{fill:#090F21;}
	.st38{fill:url(#SVGID_23_);}
	.st39{fill:url(#SVGID_24_);}
	.st40{fill:url(#SVGID_25_);}
	.st41{fill:url(#SVGID_26_);}
	.st42{fill:url(#SVGID_27_);}
	.st43{fill:url(#SVGID_28_);}
	.st44{fill:url(#SVGID_29_);}
	.st45{fill:url(#SVGID_30_);}
	.st46{fill:#8A827B;}
	.st47{opacity:0.5;}
	.st48{fill:#72CAD4;}
	.st49{fill:#AEE0EB;}
	.st50{fill:#74459E;}
	.st51{fill:url(#SVGID_31_);}
	.st52{fill:url(#SVGID_32_);}
	.st53{filter:url(#Adobe_OpacityMaskFilter_2_);}
	.st54{filter:url(#Adobe_OpacityMaskFilter_3_);}
	.st55{mask:url(#SVGID_33_);fill:url(#SVGID_34_);}
	.st56{fill:url(#SVGID_35_);}
	.st57{fill:url(#SVGID_36_);}
	.st58{fill:url(#SVGID_37_);}
	.st59{fill:url(#SVGID_38_);}
	.st60{fill:url(#SVGID_39_);}
	.st61{fill:url(#SVGID_40_);}
	.st62{fill:url(#SVGID_41_);}
	.st63{fill:url(#SVGID_42_);}
	.st64{fill:url(#SVGID_43_);}
	.st65{fill:url(#SVGID_44_);}
	.st66{fill:url(#SVGID_45_);}
	.st67{fill:url(#SVGID_46_);}
	.st68{fill:url(#SVGID_47_);}
</style>
<g>
	<g>
		<g>
			<g>
				<g>
					<g>
						<g>
							<g>
								<path class="st0" d="M2318.8,1560.2c0,13.1-10.7,23.9-23.9,23.9H23.9c-13.1,0-23.9-10.7-23.9-23.9v-11.1
									c0-13.1,10.7-23.9,23.9-23.9h2271.1c13.1,0,23.9,10.7,23.9,23.9V1560.2z"/>
							</g>
						</g>
					</g>
				</g>
			</g>
		</g>
	</g>
	<g>
		<g>
			<g>
				<g>
					<g>
						<g>
							<g>
								<path class="st0" d="M2546.8,1560.2c0,13.1-10.7,23.9-23.9,23.9h-144.2c-13.1,0-23.9-10.7-23.9-23.9v-11.1
									c0-13.1,10.7-23.9,23.9-23.9h144.2c13.1,0,23.9,10.7,23.9,23.9V1560.2z"/>
							</g>
						</g>
					</g>
				</g>
			</g>
		</g>
	</g>
	<g>
		<g>
			<g>
				<g>
					<g>
						<g>
							<g>
								<path class="st0" d="M2645.2,1560.2c0,13.1-10.7,23.9-23.9,23.9h-14.6c-13.1,0-23.9-10.7-23.9-23.9v-11.1
									c0-13.1,10.7-23.9,23.9-23.9h14.6c13.1,0,23.9,10.7,23.9,23.9V1560.2z"/>
							</g>
						</g>
					</g>
				</g>
			</g>
		</g>
	</g>
	<g>
		<g>
			<g>
				<rect x="781.8" y="1289.6" class="st1" width="405.8" height="130.4"/>
				<g>
					<linearGradient id="SVGID_1_" gradientUnits="userSpaceOnUse" x1="1403.198" y1="1354.7861" x2="-192.7781" y2="1354.7861">
						<stop  offset="0" style="stop-color:#42238C"/>
						<stop  offset="0.2522" style="stop-color:#46258E"/>
						<stop  offset="0.5332" style="stop-color:#522D92"/>
						<stop  offset="0.8269" style="stop-color:#653A98"/>
						<stop  offset="1" style="stop-color:#74459E"/>
					</linearGradient>
					<path class="st2" d="M845.2,1299.4c0.5-0.1,0.9-0.2,1.4-0.2h346.8c3.8,0,6.9-3.1,6.9-6.9v-2.7c0-3.8-3.1-6.9-61-6.9
						c0,0-924.8,0.1-925.3,0.2c-1.7-0.1-3.5-0.2-5.3-0.2c-39.8,0-72,32.2-72,72c0,39.8,32.2,72,72,72c1.8,0,3.5-0.1,5.3-0.2
						c0.5,0.1,925.3,0.2,925.3,0.2c57.9,0,61-3.1,61-6.9v-2.7c0-3.8-3.1-6.9-6.9-6.9H846.6c-0.5,0-1-0.1-1.4-0.2
						c-28.8-2-51.6-26-51.6-55.4C793.6,1325.4,816.3,1301.4,845.2,1299.4z"/>
					<path class="st3" d="M1200.2,1419.9v-2.7c0-3.8-3.1-6.9-6.9-6.9H846.6c-0.5,0-1-0.1-1.4-0.2c-28.8-2-51.6-26-51.6-55.4
						c0-29.4,22.8-53.4,51.6-55.4c0.5-0.1,0.9-0.2,1.4-0.2h346.8c3.8,0,6.9-3.1,6.9-6.9v-2.7c0-3.8-3.1-6.9-6.9-6.9H853.1
						c-0.6,0-1.1,0.1-1.6,0.2c-1.7-0.1-3.5-0.2-5.3-0.2c-39.8,0-72,32.2-72,72c0,39.8,32.2,72,72,72c1.8,0,3.5-0.1,5.3-0.2
						c0.5,0.1,1.1,0.2,1.6,0.2h340.3C1197.2,1426.8,1200.2,1423.7,1200.2,1419.9z"/>
				</g>
			</g>
		</g>
		<g>
			<g>
				<rect x="127.3" y="1435.9" class="st4" width="636.2" height="108.6"/>
				<linearGradient id="SVGID_2_" gradientUnits="userSpaceOnUse" x1="-964.5756" y1="1490.7404" x2="2010.3064" y2="1490.7404">
					<stop  offset="0" style="stop-color:#468EC0"/>
					<stop  offset="0.2749" style="stop-color:#4992C3"/>
					<stop  offset="0.5812" style="stop-color:#519FC9"/>
					<stop  offset="0.9013" style="stop-color:#60B4D4"/>
					<stop  offset="1" style="stop-color:#65BDD8"/>
				</linearGradient>
				<path class="st5" d="M116.1,1426.8c-4.3,0-7.8,3.5-7.8,7.8v3.1c0,4.3,3.5,7.8,7.8,7.8H700c4.3,0,7.8,3.5,7.8,7.8v74.6
					c0,4.3-3.5,7.8-7.8,7.8H116.1c-4.3,0-7.8,3.5-7.8,7.8v3.1c0,4.3,3.5,7.8,7.8,7.8h654.8H1181c4.3,0,7.8-3.5,7.8-7.8v-112.2
					c0-4.3-3.5-7.8-7.8-7.8H753.6H116.1z"/>
				<path class="st3" d="M729.3,1546.9v-112.2c0-4.3-3.5-7.8-7.8-7.8H116.1c-4.3,0-7.8,3.5-7.8,7.8v3.1c0,4.3,3.5,7.8,7.8,7.8H700
					c4.3,0,7.8,3.5,7.8,7.8v74.6c0,4.3-3.5,7.8-7.8,7.8H116.1c-4.3,0-7.8,3.5-7.8,7.8v3.1c0,4.3,3.5,7.8,7.8,7.8h605.4
					C725.8,1554.7,729.3,1551.2,729.3,1546.9z"/>
			</g>
		</g>
		<g>
			<g>
				<g>
					<g>
						<rect x="187.4" y="1141.5" class="st6" width="944.3" height="130.1"/>
						<path class="st7" d="M202.5,1266c-4.6,0-8.4-3.8-8.4-8.4v-100.9c0-4.6,3.8-8.4,8.4-8.4H1139c4.6,0,8.4-3.8,8.4-8.4l0,0
							c0-4.6-3.8-8.4-8.4-8.4H185.7c-4.6,0-8.4,3.8-8.4,8.4v134.6c0,4.6,3.8,8.4,8.4,8.4H1139c4.6,0,8.4-3.8,8.4-8.4l0,0
							c0-4.6-3.8-8.4-8.4-8.4H202.5z"/>
					</g>
					<path class="st8" d="M1139,1148.2c4.6,0,8.4-3.8,8.4-8.4c0-4.6-3.8-8.4-8.4-8.4H704.9v151.4H1139c4.6,0,8.4-3.8,8.4-8.4
						c0-4.6-3.8-8.4-8.4-8.4h-7.3v-117.8H1139z"/>
				</g>
			</g>
		</g>
		<g>
			<g>
				<rect x="123.4" y="1012.6" class="st4" width="446.1" height="108.6"/>
				
					<linearGradient id="SVGID_3_" gradientUnits="userSpaceOnUse" x1="-4034.1208" y1="1067.4385" x2="-4988.6372" y2="1067.4385" gradientTransform="matrix(-1 0 0 1 -3927.957 0)">
					<stop  offset="0" style="stop-color:#42238C"/>
					<stop  offset="0.2522" style="stop-color:#46258E"/>
					<stop  offset="0.5332" style="stop-color:#522D92"/>
					<stop  offset="0.8269" style="stop-color:#653A98"/>
					<stop  offset="1" style="stop-color:#74459E"/>
				</linearGradient>
				<path class="st9" d="M112.2,1003.5c-4.3,0-7.8,3.5-7.8,7.8v3.1c0,4.3,3.5,7.8,7.8,7.8H506c4.3,0,7.8,3.5,7.8,7.8v74.6
					c0,4.3-3.5,7.8-7.8,7.8H112.2c-4.3,0-7.8,3.5-7.8,7.8v3.1c0,4.3,3.5,7.8,7.8,7.8h464.7h519c4.3,0,7.8-3.5,7.8-7.8v-112.2
					c0-4.3-3.5-7.8-7.8-7.8H559.6H112.2z"/>
				<path class="st3" d="M535.3,1123.6v-112.2c0-4.3-3.5-7.8-7.8-7.8H112.2c-4.3,0-7.8,3.5-7.8,7.8v3.1c0,4.3,3.5,7.8,7.8,7.8H506
					c4.3,0,7.8,3.5,7.8,7.8v74.6c0,4.3-3.5,7.8-7.8,7.8H112.2c-4.3,0-7.8,3.5-7.8,7.8v3.1c0,4.3,3.5,7.8,7.8,7.8h415.3
					C531.7,1131.4,535.3,1127.9,535.3,1123.6z"/>
			</g>
			
				<linearGradient id="SVGID_4_" gradientUnits="userSpaceOnUse" x1="-5721.6812" y1="1131.3971" x2="-3270.0925" y2="1131.3971" gradientTransform="matrix(-1 0 0 1 -3927.957 0)">
				<stop  offset="0" style="stop-color:#468EC0"/>
				<stop  offset="0.2749" style="stop-color:#4992C3"/>
				<stop  offset="0.5812" style="stop-color:#519FC9"/>
				<stop  offset="0.9013" style="stop-color:#60B4D4"/>
				<stop  offset="1" style="stop-color:#65BDD8"/>
			</linearGradient>
			<polygon class="st10" points="178.9,1069.7 220.4,1069.7 234.9,1069.7 276.4,1069.7 276.4,1193.1 227.7,1146.2 178.9,1193.1 			
				"/>
		</g>
	</g>
	<g>
		<g>
			<path class="st11" d="M1275.1,1320.9c0,0-46.4-39.2-49.6-42.3c-3.6-3.4-9.2-9.1-16.8,4.5c-7.6,13.6-10.2,17.7-10.2,17.7
				s61.2,29.8,68.2,32.2C1273.7,1335.6,1281.3,1333.1,1275.1,1320.9z"/>
			<path class="st12" d="M997.1,840.8c0,0,129.5,59,164.8,76.9c35.3,17.9,12.5,91-42.8,89.7c-55.3-1.2-131.7-4.2-179.5-24.8
				c-47.8-20.6-86.5-59.1-74.5-109.3C876.4,826.1,948.7,818.6,997.1,840.8z"/>
			<path class="st12" d="M1176.3,934.4c11.6,47.1,11.3,74.1,20.5,132.1c9.2,58,36.1,224.2,36.1,224.2s-5.8,3.9-11.5,1.3
				c-6.5-2.9-7.7-7-7.7-7s-7.9-31.2-21.9-56.1c-14.1-24.9-92.9-198.4-106.5-230.6c-13.6-32.1-6.5-47,31.3-59.3
				C1154.3,926.7,1174.6,927.6,1176.3,934.4z"/>
		</g>
		<path class="st13" d="M943.8,851.9c0,0,115.9,82.6,147.2,106.9c31.3,24.3-5,91.7-59.1,80c-54.1-11.7-128.5-29.2-171.5-58.5
			c-43-29.3-63.6-71.2-63.5-125.4C796.8,806.3,900.5,820.9,943.8,851.9z"/>
		<g>
			<path class="st11" d="M1138.6,1364.4c0,0-50.6-33.5-54.2-36.2c-4-3-10.2-8-16.1,6.4c-5.9,14.4-8.1,18.8-8.1,18.8
				s64.3,22.5,71.5,24.1C1138.9,1379.1,1146.2,1375.8,1138.6,1364.4z"/>
			<path class="st13" d="M1102.6,978.9c3,48.5-2.1,75-3.5,133.7c-1.4,58.7-4.7,227.1-4.7,227.1s-6,3.2-10.6,1.7
				c-6.8-2.2-6.8-5.3-6.8-5.3s-2.6-37.5-12-64.5c-9.4-27-55.8-211.9-63.4-245.9c-7.6-34.1,2-47.4,41.4-52.8
				C1082.3,967.4,1102.2,971.9,1102.6,978.9z"/>
		</g>
		<path class="st14" d="M793.4,852.4c0,32,15.4,151.1,69.4,151.1c37.9,0,125,35.2,129.2,36.6c4.3,1.4,9.6,22.2,9.6,22.2
			s19.9,14.8,65.4,12.9c45.5-1.9,128.8-55.6,128.8-55.6s-7.5-86.5-22.1-98.5c-14.5-12-116.1-55-140.5-68.8
			c-24.4-13.8-72.9-70.8-136.7-70.8S793.4,819.7,793.4,852.4z"/>
		<path class="st14" d="M968.5,513.3c0,0,17-11.3,17-25.5c0-14.1-8.5-18.2-6.3-22.9c4.1-8.8,1.9-35.9-6.1-50.9
			c-10.5-19.8-22.3-44.2-84.2-34.5c-38.6,6.1-60.8,57.7-74,131.2c-6.2,34.5-44,36.5-65.6,41.5c-39.5,9.1-49.2,44.6-46.1,75.3
			c2.7,25.9,19.8,26.8,20.1,31.3c0.9,11.8-3.8,64.2,77.8,64.2c49,0,104.6,30.8,168.3-14.5c63.7-45.3,50.4-117.3,31-144.2
			C981.2,537.5,968.5,513.3,968.5,513.3z"/>
		<g>
			<path class="st13" d="M1143.4,661c17.5-44.9,17.5-146.3,19.2-168.9c2-27.4,10.4-21.4,10.6-44.6c0.1-15.9-29.5-8.5-37.2-7.4
				c-20.8,3-21.5,29.8,2.9,45.8c1.7,12.8-25.8,121.7-33,154c-3.3,14.6-20,41.6-1.8,41.4C1125.1,681,1136.9,677.7,1143.4,661z"/>
			<path class="st13" d="M1114.9,467.2c-3-5.3-11.5-20.6-6-22.4c4.3-1.4,10.6,5.4,13.8,10.8c1.1,1.9,1.4,6.6,13.1,12.4
				c8.4,4.2,1.2,16.5,1.2,16.5S1121.1,478.2,1114.9,467.2z"/>
		</g>
		<g>
			<path class="st13" d="M1074.9,621.8c0,0,42,23.7,53.1,33c8,6.6-2.1,17-8.2,23.4c-6.1,6.4-39,2.4-64.2-9.7
				C1036.2,659.2,1070.7,622.1,1074.9,621.8z"/>
			<linearGradient id="SVGID_5_" gradientUnits="userSpaceOnUse" x1="948.5128" y1="593.3206" x2="1119.0186" y2="689.9406">
				<stop  offset="0" style="stop-color:#65BDD8"/>
				<stop  offset="0.2136" style="stop-color:#59A9C5"/>
				<stop  offset="0.6391" style="stop-color:#3B7A99"/>
				<stop  offset="1" style="stop-color:#205376"/>
			</linearGradient>
			<path class="st15" d="M955.9,537.9c37.1,15.1,151.6,87.9,151.6,87.9s1.6,13.2-10.2,36.3c-17.8,34.8-33.2,51.2-33.2,51.2
				s-122.2-54-164.7-91.8c-11-9.8-39.2-42.2-18.4-73.6C898,522.1,935.2,529.5,955.9,537.9z"/>
		</g>
		<path class="st16" d="M810.1,639.2c1.9-46.4,8.1-103.5,70.3-108c15.3-1.1,26.8-1.6,41.3-0.4c50.8,4.3,56.1,20.3,66,43.8
			c1.4,3.3,10,33.4,11.3,37.3v0c5,17.4,45.6,55.4,51,84.2c10.3,54.7-33.6,51.2-33.6,51.2c14.7,83.2,22.7,104.6,22.7,104.6
			s-54,42-150.1,27.2c-80.3-12.4-99.8-29.4-99.8-29.4S802.9,813.4,810.1,639.2z"/>
		<path class="st17" d="M892.4,752.3c-28.9-21.8-18.9-50.7-18.9-50.7s-5.7,21.8,19.4,38.2c25.1,16.5,79.6,8.6,123.6,7.4
			c0.8,4.3,1.5,8.4,2.2,12.4C997.1,762.4,917.3,771.1,892.4,752.3z"/>
		<g>
			<polygon class="st14" points="1227.1,494.3 987,477.3 987,460.7 1227.1,443.6 			"/>
			<linearGradient id="SVGID_6_" gradientUnits="userSpaceOnUse" x1="1229.0938" y1="438.7122" x2="1229.0938" y2="490.2509">
				<stop  offset="0" style="stop-color:#76469F"/>
				<stop  offset="1" style="stop-color:#391C89"/>
			</linearGradient>
			<path class="st18" d="M1223.3,496c0,1.5,1.2,2.7,2.7,2.7h6.2c1.5,0,2.7-1.2,2.7-2.7V442c0-1.5-1.2-2.6-2.7-2.6h-6.2
				c-1.5,0-2.7,1.2-2.7,2.6V496z"/>
			<linearGradient id="SVGID_7_" gradientUnits="userSpaceOnUse" x1="989.0592" y1="438.7102" x2="989.0592" y2="490.2509">
				<stop  offset="0" style="stop-color:#76469F"/>
				<stop  offset="1" style="stop-color:#391C89"/>
			</linearGradient>
			<path class="st19" d="M983.3,479.2c0,1.5,1.2,2.7,2.6,2.7h6.2c1.5,0,2.7-1.2,2.7-2.7v-20.5c0-1.5-1.2-2.7-2.7-2.7H986
				c-1.5,0-2.6,1.2-2.6,2.7V479.2z"/>
		</g>
		<path class="st13" d="M1172.9,444.6c0.9,4.8,0.3,12.4-5.2,16.7c-5.5,4.3-12.9,9.6-20.6,9.6c-7.6,0-21.1-3.4-23.7-8.6
			c-2.7-5.2-5.4-16.1,5.3-19.9c10.7-3.8,25.7-6.2,34.6-4.7C1172.2,439.3,1172.9,444.6,1172.9,444.6z"/>
		<path class="st14" d="M916.8,523.8c-17-1-37.4-6.2-41.4,3.3c-4,9.5,2.7,75.5,58.2,75.5c49.2,0,34.7-24.3,30.1-43.3
			c-3.2-13.5,2.6-35.3-19.2-35.3S928.6,524.5,916.8,523.8z"/>
		<g>
			<path class="st20" d="M885.7,530.8c12.8-0.9,23.3-1.1,36.1,0c10.5,0.9,19,2.3,26,4.1c6.2,32.3,22,56.2-8.3,56.2
				C902.2,591.1,887.4,566.1,885.7,530.8z"/>
			<g>
				<g>
					<g>
						<path class="st20" d="M893.5,535.2c1.6-32.6,9.8-52.4,21.6-77.6c0.4-0.8,1.4-2.4,4.7-2.6c8.1-0.5,28.4,0.2,42-14.9
							c1.4-1.5,7.2-1.7,7.6,2.8c1.1,14.1-0.7,35.3-4.3,50.5c-5,21.1-12.1,32.2-32.3,20.6c0.9,10,2.3,22.2,4.3,31.1
							c4,18-7.7,24.6-16.4,25.3C911.9,571.1,891.9,569.4,893.5,535.2z"/>
						<path class="st20" d="M892.4,464.7c-3.4,4.9-0.4,13,6.8,18.1c7.2,5.1,15.9,5.3,19.3,0.4c3.4-4.9,0.4-13-6.8-18.1
							C904.5,459.9,895.9,459.8,892.4,464.7z"/>
					</g>
				</g>
			</g>
		</g>
		<g>
			<path class="st20" d="M1056.2,481.1c-3.6-4.9-13.9-19.1-8.7-21.5c4.1-1.9,11.2,4.1,15,9.1c1.4,1.8,2.2,6.4,14.5,10.7
				c8.8,3.1,3.2,16.2,3.2,16.2S1063.7,491.4,1056.2,481.1z"/>
			<path class="st20" d="M1093.9,673.8c15.2-45.7,10.1-147,10.7-169.6c0.6-27.4,7.5-25.9,7.3-49.2c-0.3-28-31.3-10.1-38.9-8.7
				c-18.4,3.3-17.4,38.1,7.7,52.8c2.3,12.7-19.6,122.9-25.2,155.5c-2.5,14.7-17.8,40.9,0.4,40.3
				C1077,694.2,1088.2,690.8,1093.9,673.8z"/>
		</g>
		<g>
			<path class="st20" d="M1024.2,638.2c0,0,43.8,20.1,55.7,28.4c8.5,5.9-0.7,17.1-6.2,24c-5.5,6.9-38.6,5.7-64.8-4.2
				C988.8,678.8,1020,638.8,1024.2,638.2z"/>
			<linearGradient id="SVGID_8_" gradientUnits="userSpaceOnUse" x1="846.7818" y1="619.5834" x2="1045.7068" y2="701.9951">
				<stop  offset="0" style="stop-color:#65BDD8"/>
				<stop  offset="0.2136" style="stop-color:#59A9C5"/>
				<stop  offset="0.6391" style="stop-color:#3B7A99"/>
				<stop  offset="1" style="stop-color:#205376"/>
			</linearGradient>
			<path class="st21" d="M873.5,567.1c38.4,11.4,177.9,73.7,177.9,73.7s4.1,12.6-3.1,37.6c-10.8,37.5-23.6,61.4-23.6,61.4
				s-90.9-28.9-150-44.3c-46.8-12.2-68.2-50.8-57.3-87C827.3,575.6,847.2,559.3,873.5,567.1z"/>
		</g>
	</g>
	<g>
		<g>
			<path class="st11" d="M709.4,959.3c0,0-4.6-1.7-18.9-8c-14.3-6.3-15.3,1.6-16.1,6.5c-0.5,2.8-5.9,27.3-9.9,45.1
				c0,0,13.3,0,17.7,0c4.2,0,6.7-3.9,7.7-5.9C699.4,978.9,709.4,959.3,709.4,959.3z"/>
			<path class="st11" d="M669.6,980.2c-10.2,3.2-26,8.3-26,8.3c-10.4,8.8-3.5,14.5,3,14.5c9.4,0,26.4,0,26.4,0L669.6,980.2z"/>
		</g>
		<g>
			<path class="st20" d="M203.3,188.5c0,0-48,4.8-61.9,8.8c-10,2.9-4.9,16.4-1.9,24.7c3,8.3,34.7,17.9,62.7,17
				C223.6,238.3,207,190.4,203.3,188.5z"/>
			<linearGradient id="SVGID_9_" gradientUnits="userSpaceOnUse" x1="326.4041" y1="209.7251" x2="234.2037" y2="250.773">
				<stop  offset="0" style="stop-color:#76469F"/>
				<stop  offset="1" style="stop-color:#391C89"/>
			</linearGradient>
			<path class="st22" d="M351.9,181.6c-39.7-5.4-175.2,0.6-175.2,0.6s-8,10.6-9.3,36.6c-1.9,39,8.3,52.4,8.3,52.4
				s89.4,15.4,150.4,20c48.3,3.6,84.8-26,82.4-63.7C406.6,196.7,374.1,184.7,351.9,181.6z"/>
		</g>
		<g>
			<path class="st11" d="M122.6,987.5c0,0,58.8-15,63.1-16.3c4.7-1.5,12.2-4.2,13.1,11.4c0.9,15.5,1.4,20.4,1.4,20.4
				s-68.1,0-75.4-0.8C117.4,1001.3,111.7,995.7,122.6,987.5z"/>
			
				<linearGradient id="SVGID_10_" gradientUnits="userSpaceOnUse" x1="-281.2469" y1="904.7769" x2="-351.3419" y2="1149.163" gradientTransform="matrix(0.9943 0.1069 -0.1069 0.9943 697.8556 -337.4337)">
				<stop  offset="0" style="stop-color:#0A0E1A"/>
				<stop  offset="1" style="stop-color:#040F2C"/>
			</linearGradient>
			<path class="st23" d="M354,467.7c0,0-165.4,108.4-197.6,131.5c-32.2,23.1,1.4,91.8,55.9,82.2c54.5-9.6,129.5-24.1,173.7-51.7
				c44.1-27.6,71.1-59.4,77-107.6C469,473.9,398.6,438.5,354,467.7z"/>
			
				<linearGradient id="SVGID_11_" gradientUnits="userSpaceOnUse" x1="603.7513" y1="-940.0859" x2="533.6554" y2="-695.6968" gradientTransform="matrix(0.975 0.2222 -0.2222 0.975 -485.5126 1319.5073)">
				<stop  offset="0" style="stop-color:#0A0E1A"/>
				<stop  offset="1" style="stop-color:#040F2C"/>
			</linearGradient>
			<path class="st24" d="M143.8,619.9c0.1,48.5,6.8,74.7,11.9,133.2c5.1,58.5,18.7,227.1,18.7,227.1s4.1,4.3,9,3.7
				c7.4-0.9,8.3-5,8.3-5s0.3-41.8,8-69.4c7.7-27.5,42.4-215,47.8-249.4c5.4-34.5-5-47.1-44.6-50.1
				C163.3,607.1,143.8,612.8,143.8,619.9z"/>
		</g>
		<path class="st14" d="M375.4,501.3c0,0,6.8,197.7,9.8,237.2c3,39.5,79.2,46.4,99.3-5.1c20.1-51.5,46.6-123.2,45.9-175.3
			c-0.7-52.1-13.9-91.6-52-121.7C440.3,406.2,373.5,448,375.4,501.3z"/>
		<path class="st14" d="M392.3,756c36.4,32.1,60.5,44.4,107.6,79.3c47.2,35,175.2,135.6,175.2,135.6s11.8-5.4,10.6-15
			c-9.7-8.1-23.9-25.9-39.4-49.9c-15.5-24-132.9-174.2-155.1-201.1c-22.2-26.9-38.6-27.5-67.1,0.3C395.7,732.9,387,751.4,392.3,756z
			"/>
		
			<linearGradient id="SVGID_12_" gradientUnits="userSpaceOnUse" x1="199.5432" y1="911.2878" x2="164.1736" y2="1143.7234" gradientTransform="matrix(0.9671 -0.2543 0.2543 0.9671 -53.4757 -540.3728)">
			<stop  offset="0" style="stop-color:#76469F"/>
			<stop  offset="1" style="stop-color:#643E9A"/>
		</linearGradient>
		<path class="st25" d="M406,170.3c62.3,0.2,70.5,54.7,83.7,99.2C516.9,361.1,535,513,535,513s-29,23.3-127.4,31
			c-127.8,10-151-15.5-151-15.5s42.5-149.4,30.1-287c-2.8-31.1,27.6-60.9,78-68.7C379.1,170.5,390.6,170.2,406,170.3z"/>
		<linearGradient id="SVGID_13_" gradientUnits="userSpaceOnUse" x1="681.7668" y1="402.1427" x2="212.8224" y2="402.1427">
			<stop  offset="0" style="stop-color:#FFFFFF"/>
			<stop  offset="1" style="stop-color:#8E857E"/>
		</linearGradient>
		<path class="st26" d="M503.3,323.1h-80.6c-5.7,0-10.3,4.6-10.3,10.3v137.6c0,5.7,4.6,10.3,10.3,10.3h108.1
			C525.7,444,516.1,380.3,503.3,323.1z"/>
		<linearGradient id="SVGID_14_" gradientUnits="userSpaceOnUse" x1="527.8354" y1="319.3564" x2="527.8354" y2="567.1122">
			<stop  offset="0" style="stop-color:#63BCD8"/>
			<stop  offset="1" style="stop-color:#3D7EB8"/>
		</linearGradient>
		<path class="st27" d="M636.4,465.4c0,5.2-4.3,9.5-9.5,9.5H428.8c-5.2,0-9.5-4.3-9.5-9.5V338.9c0-5.2,4.3-9.5,9.5-9.5h198.2
			c5.2,0,9.5,4.3,9.5,9.5V465.4z"/>
		<linearGradient id="SVGID_15_" gradientUnits="userSpaceOnUse" x1="758.4935" y1="402.1427" x2="74.2828" y2="402.1427">
			<stop  offset="0" style="stop-color:#FFFFFF"/>
			<stop  offset="1" style="stop-color:#8E857E"/>
		</linearGradient>
		<path class="st28" d="M613.6,384.8c7.9-9.9,15.7-21.8,22.8-33.4v-12.5c0-5.2-4.3-9.5-9.5-9.5H516.8c10.7,4.8,43.7,19.9,45.3,20.9
			c1.9,1.3-10.4,30.9-18.9,46.7c-8.5,15.8-16.4,38.8-17.7,39.5c-1.3,0.6-18.3,2.5-30.6,11.7c-12.3,9.2-17.4,18.2-27.5,18.2h-29.5
			c-5.2,0-9.5-4.3-9.5-9.5V330.3c0-0.3,0.1-0.6,0.1-0.9c-5.1,0.1-9.3,4.3-9.3,9.5v126.6c0,5.2,4.3,9.5,9.5,9.5h36.9h97.9h63.4
			c4.9,0,8.9-3.8,9.4-8.5c-0.1,0-0.1,0-0.2,0h-72.6c-0.8-6.5-2.7-13.1-2.7-13.1S588.3,416.4,613.6,384.8z"/>
		<circle class="st8" cx="527.8" cy="402.1" r="20.8"/>
		<g>
			<g>
				<path class="st20" d="M625.1,285.4c-33.9,34.1-83.6,138.2-93.5,158.6c-14.1,4.6-24.4,22.1-32.9,30.9c-8.9,9.1,38.1,11.6,48,7
					c7.2-3.4,10.1-8.2,7-28.5c3.6-12.5,67.1-90.6,86.6-117.4C649.1,324,648.6,300.4,625.1,285.4z"/>
			</g>
			<g>
				<path class="st20" d="M583.9,255.4c0,0,39.7,27.3,50,37.5c7.4,7.3-3.6,16.7-10.3,22.6c-6.6,5.9-39-1.1-63.1-15.3
					C542.1,289.3,579.7,255.3,583.9,255.4z"/>
				
					<linearGradient id="SVGID_16_" gradientUnits="userSpaceOnUse" x1="947.0346" y1="-1730.3695" x2="1053.7529" y2="-1708.2682" gradientTransform="matrix(0.9691 0.2469 -0.2469 0.9691 -857.1167 1697.1915)">
					<stop  offset="0" style="stop-color:#76469F"/>
					<stop  offset="1" style="stop-color:#391C89"/>
				</linearGradient>
				<path class="st29" d="M457,177.8c37.4,14.4,153.2,85,153.2,85s1.9,13.1-9.5,36.5c-17.1,35.1-32.6,41.9-32.6,41.9
					s-85.8-29.6-141.4-55c-44-20.1-61.8-63.6-41.5-95.5C401.8,164.6,436.2,169.8,457,177.8z"/>
			</g>
			<path class="st20" d="M494.3,458.5c-4.5,4.1-9.6,12.3-6.5,14.2c8.6,5.3,12.9-6.9,25.7-9.8c9.1-2.1,18.2-18.9,18.2-18.9
				S510.3,444,494.3,458.5z"/>
		</g>
		<g>
			<path class="st14" d="M314.9,119.5c-22.1-13.4-41.1-72.9-13-83.4c47.7-17.9,40.6,15.9,60.7,12.9c43.6-6.7,53.9,14.2,51.3,56.4
				c-1.6,25.7-14.2,35.2-22.7,49.2c-4.8,7.8-13.7-25.9-37.5-33.6C329.9,113.2,314.9,119.5,314.9,119.5z"/>
			<path class="st14" d="M328.2,182.8c-2.1,18.5-11.9,59.9,31.5,54.4c51-6.4,58.1-60.1,54.8-65.9c-7.5-13.1-27.3-4.2-40.2-2.4
				C361.4,170.7,329.9,167.1,328.2,182.8z"/>
			<g>
				
					<linearGradient id="SVGID_17_" gradientUnits="userSpaceOnUse" x1="13617.1924" y1="2024.7831" x2="13617.1924" y2="2847.1582" gradientTransform="matrix(-0.9991 -4.070000e-02 -4.070000e-02 0.9991 14066.8418 -1531.0978)">
					<stop  offset="0" style="stop-color:#FDAA65"/>
					<stop  offset="1" style="stop-color:#F47124"/>
				</linearGradient>
				<path class="st30" d="M400.9,171.3c-2.5,0-5,0-7.6,0.1c-14.5,0.6-25.9,2.6-40.9,5.7c-4.7,1-9.1,2.2-13.1,3.7
					c-0.7,12-10,45.8,22.7,42.6C395.6,220.1,402.5,182.6,400.9,171.3z"/>
				<g>
					
						<linearGradient id="SVGID_18_" gradientUnits="userSpaceOnUse" x1="13636.126" y1="2027.6124" x2="13636.126" y2="2840.1433" gradientTransform="matrix(-0.9991 -4.070000e-02 -4.070000e-02 0.9991 14066.8418 -1531.0978)">
						<stop  offset="0" style="stop-color:#FDAA65"/>
						<stop  offset="1" style="stop-color:#F47124"/>
					</linearGradient>
					<path class="st31" d="M393.2,175.3c-4-33.5-14.1-52.8-28.4-78.4c-0.2-1-40.2,11.6-53.6-7.7c0,0,0.9,27.4,7.7,49.3
						c6.5,20.7,14.4,31.3,33.7,18.3c-0.2,10-0.7,22.3-2.1,31.3c-2.8,18.2,9.4,24,18.1,24.1C377.3,212.3,397.2,209.3,393.2,175.3z"/>
					
						<linearGradient id="SVGID_19_" gradientUnits="userSpaceOnUse" x1="13614.0264" y1="2027.5638" x2="13614.0264" y2="2840.2922" gradientTransform="matrix(-0.9991 -4.070000e-02 -4.070000e-02 0.9991 14066.8418 -1531.0978)">
						<stop  offset="0" style="stop-color:#FDAA65"/>
						<stop  offset="1" style="stop-color:#F47124"/>
					</linearGradient>
					<path class="st32" d="M388,101.9c3.8,4.6,1.3,12.9-5.6,18.5c-6.8,5.6-15.5,6.4-19.2,1.7c-3.8-4.6-1.3-12.9,5.6-18.5
						C375.6,98,384.2,97.3,388,101.9z"/>
				</g>
			</g>
		</g>
		<g>
			<path class="st20" d="M300,79.1c6-1.1,15.5-1.6,15.5,2.1c-0.1,10.1-12.7,7.2-22,16.5c-6.6,6.6-16-4.2-16-4.2S287.5,81.4,300,79.1
				z"/>
			<path class="st20" d="M109,179.6c33-35.1,131.3-87.1,151.4-97.7c10.2-5.4,14.8-22.6,38.1-23.6c54-2.3,48.9,16.6,39.1,16.4
				c-69.8-1.3-21.7,29.7-61.3,25.9c-12.3,4-92.4,73.1-118.5,93.6c-11.7,9.2,9.7,40.6-7,36.2C130.2,224.7,96.8,192.6,109,179.6z"/>
		</g>
	</g>
	<g>
		<g>
			<defs>
				<filter id="Adobe_OpacityMaskFilter" filterUnits="userSpaceOnUse" x="1177.7" y="1451.9" width="525" height="102.8">
					<feFlood  style="flood-color:white;flood-opacity:1" result="back"/>
					<feBlend  in="SourceGraphic" in2="back" mode="normal"/>
				</filter>
			</defs>
			<mask maskUnits="userSpaceOnUse" x="1177.7" y="1451.9" width="525" height="102.8" id="SVGID_20_">
				<g class="st33">
					<defs>
						<filter id="Adobe_OpacityMaskFilter_1_" filterUnits="userSpaceOnUse" x="1177.7" y="1451.9" width="525" height="102.8">
							<feFlood  style="flood-color:white;flood-opacity:1" result="back"/>
							<feBlend  in="SourceGraphic" in2="back" mode="normal"/>
						</filter>
					</defs>
					<mask maskUnits="userSpaceOnUse" x="1177.7" y="1451.9" width="525" height="102.8" id="SVGID_20_">
						<g class="st34">
						</g>
					</mask>
					<linearGradient id="SVGID_21_" gradientUnits="userSpaceOnUse" x1="1225.1089" y1="1503.3157" x2="1562.6813" y2="1503.3157">
						<stop  offset="0" style="stop-color:#000000"/>
						<stop  offset="1" style="stop-color:#FFFFFF"/>
					</linearGradient>
					<path class="st35" d="M1599.8,1554.7c-30.2,0-44.8-24.5-56.6-44.1c-11.2-18.8-18.7-30.2-32.1-30.2c-13.4,0-21,11.5-32.1,30.2
						c-11.7,19.7-26.3,44.1-56.6,44.1c-30.2,0-44.8-24.5-56.6-44.1c-11.2-18.7-18.7-30.2-32.2-30.2c-13.4,0-21,11.5-32.2,30.2
						c-11.7,19.7-26.3,44.1-56.6,44.1c-30.2,0-44.8-24.5-56.6-44.1c-2.8-4.7-5.5-9.2-8.3-13.3c-4.4-6.5-2.7-15.3,3.8-19.7
						c6.5-4.4,15.3-2.7,19.7,3.8c3.3,4.8,6.3,9.8,9.2,14.7c11.2,18.8,18.7,30.2,32.2,30.2c13.4,0,21-11.5,32.2-30.2
						c11.7-19.7,26.3-44.1,56.6-44.1c30.2,0,44.8,24.5,56.6,44.1c11.2,18.8,18.7,30.2,32.2,30.2c13.4,0,21-11.5,32.2-30.2
						c11.7-19.7,26.3-44.1,56.6-44.1c30.2,0,44.8,24.5,56.6,44.1c11.2,18.8,18.7,30.2,32.1,30.2c13.4,0,21-11.5,32.1-30.2
						c11.7-19.7,26.3-44.1,56.6-44.1c7.8,0,14.2,6.4,14.2,14.2c0,7.8-6.4,14.2-14.2,14.2c-13.4,0-21,11.5-32.1,30.2
						C1644.6,1530.2,1630,1554.7,1599.8,1554.7z"/>
				</g>
			</mask>
			<linearGradient id="SVGID_22_" gradientUnits="userSpaceOnUse" x1="1225.1089" y1="1503.3157" x2="1562.6813" y2="1503.3157">
				<stop  offset="0" style="stop-color:#FFFFFF"/>
				<stop  offset="1" style="stop-color:#62BDD8"/>
			</linearGradient>
			<path class="st36" d="M1599.8,1554.7c-30.2,0-44.8-24.5-56.6-44.1c-11.2-18.8-18.7-30.2-32.1-30.2c-13.4,0-21,11.5-32.1,30.2
				c-11.7,19.7-26.3,44.1-56.6,44.1c-30.2,0-44.8-24.5-56.6-44.1c-11.2-18.7-18.7-30.2-32.2-30.2c-13.4,0-21,11.5-32.2,30.2
				c-11.7,19.7-26.3,44.1-56.6,44.1c-30.2,0-44.8-24.5-56.6-44.1c-2.8-4.7-5.5-9.2-8.3-13.3c-4.4-6.5-2.7-15.3,3.8-19.7
				c6.5-4.4,15.3-2.7,19.7,3.8c3.3,4.8,6.3,9.8,9.2,14.7c11.2,18.8,18.7,30.2,32.2,30.2c13.4,0,21-11.5,32.2-30.2
				c11.7-19.7,26.3-44.1,56.6-44.1c30.2,0,44.8,24.5,56.6,44.1c11.2,18.8,18.7,30.2,32.2,30.2c13.4,0,21-11.5,32.2-30.2
				c11.7-19.7,26.3-44.1,56.6-44.1c30.2,0,44.8,24.5,56.6,44.1c11.2,18.8,18.7,30.2,32.1,30.2c13.4,0,21-11.5,32.1-30.2
				c11.7-19.7,26.3-44.1,56.6-44.1c7.8,0,14.2,6.4,14.2,14.2c0,7.8-6.4,14.2-14.2,14.2c-13.4,0-21,11.5-32.1,30.2
				C1644.6,1530.2,1630,1554.7,1599.8,1554.7z"/>
		</g>
		<g>
			<path class="st37" d="M2229.1,717.1c0,0,38-115.9,100.5-92.2c62.5,23.7,64.4,114.6,25.6,198.9s-134.6,203.1-285.7,149.8
				c-151-53.2-122.4-156.5-87.5-197.2C2017,735.8,2188.2,799.8,2229.1,717.1z"/>
			<linearGradient id="SVGID_23_" gradientUnits="userSpaceOnUse" x1="2350.929" y1="689.3022" x2="2198.103" y2="641.3073">
				<stop  offset="0" style="stop-color:#FE1B00"/>
				<stop  offset="0.1597" style="stop-color:#FE2002"/>
				<stop  offset="0.3377" style="stop-color:#FE2E05"/>
				<stop  offset="0.5245" style="stop-color:#FE4409"/>
				<stop  offset="0.7173" style="stop-color:#FE620E"/>
				<stop  offset="0.913" style="stop-color:#FE8A15"/>
				<stop  offset="1" style="stop-color:#FE9E1B"/>
			</linearGradient>
			<path class="st38" d="M2281.5,633.9c0,0,16.6,4.2,19.4,6.1s1.7,24.1-2.6,34.7c-4.3,10.6-19.2,25.3-21.3,25.3s-16.6-7.5-19.4-9.2
				S2258.8,642.7,2281.5,633.9z"/>
			<path class="st14" d="M2138.3,667.2c0-14.1,6.9-25.6,6.2-30.7c-1.3-9.6,8.8-34.9,20.7-46.8c15.8-15.8,33.4-33.8,90.6-8.2
				c30.7,13.7,50.3,84.2-11.3,121C2202.8,727.4,2138.3,696.4,2138.3,667.2z"/>
			<g>
				<g>
					<path class="st20" d="M1983.2,496.7c4.4-4.2,16.1-16.2,12.6-22c-2.3-3.8-12.8,1.4-17.4,5.6c-1.6,1.5-2.5,9-15.5,11.2
						c-9.2,1.6-6.9,18.8-6.9,18.8S1972.7,506.9,1983.2,496.7z"/>
					<path class="st20" d="M1916,677.8c-7.2-47.6,11.5-144.3,15.6-166.6c2.1-11.4-8.8-27.5,0-51.7c5-14,31.1-19.5,47.6-6.8
						c6.6,5.1,6.3,46.4-23.1,57.6c-4.5,12.2-0.3,111.6-0.4,144.7c0,14.9,8.7,31-7.3,39.7C1934.7,702.2,1918.7,695.5,1916,677.8z"/>
				</g>
				<g>
					<path class="st20" d="M1988.1,668.1c0,0-47.7-7-62.2-6.5c-10.4,0.4-8.7,14.7-7.8,23.6c0.9,8.8,29.4,25.8,56.7,31.7
						C1995.8,721.3,1991.3,670.8,1988.1,668.1z"/>
					
						<linearGradient id="SVGID_24_" gradientUnits="userSpaceOnUse" x1="1432.9135" y1="-1528.9921" x2="1675.4106" y2="-1685.6052" gradientTransform="matrix(0.6945 0.7195 -0.7195 0.6945 -289.787 706.0599)">
						<stop  offset="0" style="stop-color:#FE1B00"/>
						<stop  offset="0.1597" style="stop-color:#FE2002"/>
						<stop  offset="0.3377" style="stop-color:#FE2E05"/>
						<stop  offset="0.5245" style="stop-color:#FE4409"/>
						<stop  offset="0.7173" style="stop-color:#FE620E"/>
						<stop  offset="0.913" style="stop-color:#FE8A15"/>
						<stop  offset="1" style="stop-color:#FE9E1B"/>
					</linearGradient>
					<path class="st39" d="M2134,697.3c-37.2-14.9-170.1-41.8-170.1-41.8s-10.3,8.4-17.8,33.2c-11.3,37.4-4.6,52.9-4.6,52.9
						s83,36.6,141.1,55.8c45.9,15.2,88.6-4.7,95.4-41.8C2183.4,725.2,2154.7,705.7,2134,697.3z"/>
				</g>
			</g>
			<g>
				<path class="st11" d="M2136,1511c0,0-4.6-1.7-18.8-8c-14.3-6.3-15.3,1.6-16.1,6.5c-0.5,2.8-5.9,27.3-9.9,45.1c0,0,13.3,0,17.8,0
					c4.2,0,6.7-3.9,7.7-5.9C2126,1530.7,2136,1511,2136,1511z"/>
				<path class="st11" d="M2096.2,1531.9c-10.2,3.2-26,8.3-26,8.3c-10.4,8.8-3.5,14.5,3,14.5c9.4,0,26.4,0,26.4,0L2096.2,1531.9z"/>
			</g>
			<g>
				<g>
					<linearGradient id="SVGID_25_" gradientUnits="userSpaceOnUse" x1="1962.9587" y1="1028.1729" x2="1695.2001" y2="1332.5594">
						<stop  offset="0" style="stop-color:#0A0E1A"/>
						<stop  offset="1" style="stop-color:#040F2C"/>
					</linearGradient>
					<path class="st40" d="M1958,936.6c0,0-143.6,136-171.3,164.4c-27.6,28.4,17.7,90.1,69.6,71c51.9-19.1,123.2-46.6,161.8-81.6
						c38.6-35,59.4-71.1,56.8-119.6C2072.2,922.3,1996.6,899.9,1958,936.6z"/>
					<g>
						<path class="st11" d="M1630.8,1378.2c0,0,52.3,30.8,56.3,32.9c4.4,2.3,11.6,5.7,1.3,17.3c-10.4,11.6-13.4,15.5-13.4,15.5
							s-48.3-48-52.9-53.7C1617.5,1384.4,1617.3,1376.4,1630.8,1378.2z"/>
						<linearGradient id="SVGID_26_" gradientUnits="userSpaceOnUse" x1="1950.158" y1="1016.9127" x2="1682.3999" y2="1321.2986">
							<stop  offset="0" style="stop-color:#0A0E1A"/>
							<stop  offset="1" style="stop-color:#040F2C"/>
						</linearGradient>
						<path class="st41" d="M1777.2,1118.3c-14.9,46.2-9,22.2-28.6,77.6c-19.6,55.4-76.9,214.5-76.9,214.5s2,5.6,6.7,7.1
							c7.1,2.3,9.6-1.1,9.6-1.1s17.6-37.9,36-59.8c18.4-21.9,127.5-178.2,146.7-207.3c19.2-29.1,13.1-41.2-4.1-52.6
							C1833.4,1074.8,1788.8,1082.2,1777.2,1118.3z"/>
					</g>
				</g>
				<g>
					<path class="st14" d="M2034.5,974.2c0,0-88.2,177-104.5,213.2c-16.2,36.2,47.5,78.6,89.7,42.8c42.2-35.7,99.7-86.1,124-132.2
						c24.2-46.1,31.4-87.1,12.3-131.8S2058.2,926.4,2034.5,974.2z"/>
					<path class="st14" d="M1927.8,1207.7c19.5,44.5,36.2,65.7,64.2,117.3c28.1,51.6,108.1,200.6,108.1,200.6s5.6-1.6,9.5-6.5
						c4.1-5.3,2.2-10.6,2.2-10.6s-12.8-29.4-16.8-57.7c-4-28.3-47.2-213.9-56-247.7c-8.8-33.8-23.5-41.2-60.9-28
						C1940.5,1188.2,1924.9,1201.3,1927.8,1207.7z"/>
				</g>
				<linearGradient id="SVGID_27_" gradientUnits="userSpaceOnUse" x1="2121.1267" y1="818.8787" x2="2004.9292" y2="1110.6345">
					<stop  offset="0" style="stop-color:#FE9E1A"/>
					<stop  offset="1" style="stop-color:#FF5B00"/>
				</linearGradient>
				<path class="st42" d="M2211.8,721.9c-13.4-7.4-23.7-12.7-37.4-17.7c-47.9-17.4-88.9-6-101.4,22.6c-1.8,4.2-3.2,8.7-5.7,12.6
					c-10.5,16.3-48.8,5.8-69.3,31.4c-12.8,16,1.3,47.5,15.7,62.5C1964,912,1918.9,958,1918.9,958s0.7,29.8,117.5,82.7
					c90,40.7,133,25.2,133,25.2s47.6-123.4,67.8-216.7C2247.2,803.8,2266.3,752.1,2211.8,721.9z"/>
				<g>
					<path class="st14" d="M2137.6,695.3c-10.8,15.3-39.3,46.7,1.4,62.9c47.8,19,79.8-24.7,79.7-31.4c-0.2-15.1-21.9-16.8-34-21.5
						C2172.5,700.8,2146.7,682.4,2137.6,695.3z"/>
					<g>
						
							<linearGradient id="SVGID_28_" gradientUnits="userSpaceOnUse" x1="11603.1152" y1="306.3281" x2="11603.1152" y2="1128.6932" gradientTransform="matrix(-0.8559 -0.5169 -0.5169 0.8559 12390.0791 6240.7231)">
							<stop  offset="0" style="stop-color:#FDAA65"/>
							<stop  offset="1" style="stop-color:#F47124"/>
						</linearGradient>
						<path class="st43" d="M2206.9,720.3c-2.2-1.2-4.4-2.4-6.7-3.6c-13-6.4-23.9-10.2-38.6-14.7c-4.6-1.4-9-2.5-13.2-3.1
							c-6.4,10.2-30.9,35.3-0.6,48.3C2178.7,760.6,2202.8,731,2206.9,720.3z"/>
						<g>
							
								<linearGradient id="SVGID_29_" gradientUnits="userSpaceOnUse" x1="11622.0469" y1="309.1346" x2="11622.0469" y2="1121.7273" gradientTransform="matrix(-0.8559 -0.5169 -0.5169 0.8559 12390.0791 6240.7231)">
								<stop  offset="0" style="stop-color:#FDAA65"/>
								<stop  offset="1" style="stop-color:#F47124"/>
							</linearGradient>
							<path class="st44" d="M2198.2,720.1c12.6-31.2,13.1-53.1,12.9-82.4c0.3-1-40.8-9.1-43.3-32.6c0,0-12.5,24.5-17,47
								c-4.3,21.2-2.5,34.3,20.7,32.3c-5,8.7-11.4,19.2-16.9,26.4c-11.2,14.7-3.4,25.6,4.3,29.8
								C2166.5,744.9,2185.3,751.8,2198.2,720.1z"/>
							
								<linearGradient id="SVGID_30_" gradientUnits="userSpaceOnUse" x1="11599.9443" y1="309.0939" x2="11599.9443" y2="1121.8578" gradientTransform="matrix(-0.8559 -0.5169 -0.5169 0.8559 12390.0791 6240.7231)">
								<stop  offset="0" style="stop-color:#FDAA65"/>
								<stop  offset="1" style="stop-color:#F47124"/>
							</linearGradient>
							<path class="st45" d="M2228.9,653.3c1.1,5.9-5.1,11.9-13.8,13.5c-8.7,1.6-16.6-1.9-17.7-7.8c-1.1-5.9,5.1-11.9,13.8-13.5
								C2220,643.9,2227.9,647.4,2228.9,653.3z"/>
						</g>
					</g>
				</g>
				<path class="st46" d="M2099.9,875.7c-30.9-12.6-53.5-24.4-86.2-42.4c-2,3.2-4,6.3-6.1,9.4c16.1,9.8,58.6,34.7,88.8,43.3
					c37.9,10.7,45.5-17.4,45.5-17.4S2130.8,888.3,2099.9,875.7z"/>
			</g>
			<g>
				<g>
					<g class="st47">
						<path class="st48" d="M1551.6,832.1c-7.6,0-13.9-6-14.3-13.6c-2-40.9-34.7-103.2-85.3-162.6c-0.2-0.2-3.2-3.8-3.2-3.8
							c-0.2-0.2-0.3-0.4-0.5-0.6c-46.5-55.6-72.1-126.2-72.1-198.8c0-82.8,32.3-160.7,90.8-219.3c58.6-58.6,136.5-90.8,219.3-90.8
							c82.8,0,160.7,32.3,219.3,90.8s90.8,136.5,90.8,219.3c0,72.6-25.6,143.1-72.1,198.8c-0.2,0.2-0.3,0.4-0.5,0.6
							c0,0-3,3.5-3.2,3.8c-50.6,59.4-83.3,121.7-85.3,162.6c-0.4,7.6-6.7,13.6-14.3,13.6H1551.6z"/>
						<path class="st49" d="M1821,817.8c2.1-43,34.8-107.9,88.8-171.2c0.3-0.4,0.7-0.8,1-1.2c0.7-0.9,1.4-1.7,2.2-2.6h0
							c43.2-51.4,69.2-117.7,69.2-190.1c0-163.4-132.4-295.8-295.8-295.8c-163.4,0-295.8,132.4-295.8,295.8
							c0,72.4,26,138.7,69.2,190.1h0c0.7,0.9,1.5,1.7,2.2,2.6c0.3,0.4,0.7,0.8,1,1.2c53.9,63.3,86.6,128.2,88.8,171.2H1821z"/>
					</g>
					<g>
						<path class="st50" d="M1693.8,911.6h-15.1c-35,0-63.4-28.4-63.4-63.4V620.6c0-35,28.4-63.4,63.4-63.4h15.1
							c35,0,63.4,28.4,63.4,63.4v227.7C1757.2,883.2,1728.7,911.6,1693.8,911.6z M1678.7,585.9c-19.1,0-34.7,15.6-34.7,34.7v227.7
							c0,19.1,15.6,34.7,34.7,34.7h15.1c19.1,0,34.7-15.6,34.7-34.7V620.6c0-19.1-15.6-34.7-34.7-34.7H1678.7z"/>
					</g>
					<g>
						<linearGradient id="SVGID_31_" gradientUnits="userSpaceOnUse" x1="1686.2605" y1="621.523" x2="1686.2605" y2="1107.0487">
							<stop  offset="0" style="stop-color:#FFFFFF"/>
							<stop  offset="1" style="stop-color:#8E857E"/>
						</linearGradient>
						<path class="st51" d="M1693.8,911.6h-15.1c-35,0-63.4-28.4-63.4-63.4V620.6c0-35,28.4-63.4,63.4-63.4h15.1
							c35,0,63.4,28.4,63.4,63.4v227.7C1757.2,883.2,1728.7,911.6,1693.8,911.6z M1678.7,585.9c-19.1,0-34.7,15.6-34.7,34.7v227.7
							c0,19.1,15.6,34.7,34.7,34.7h15.1c19.1,0,34.7-15.6,34.7-34.7V620.6c0-19.1-15.6-34.7-34.7-34.7H1678.7z"/>
					</g>
					<linearGradient id="SVGID_32_" gradientUnits="userSpaceOnUse" x1="1815.9659" y1="757.554" x2="1815.9659" y2="-64.8147">
						<stop  offset="0" style="stop-color:#FFFFFF"/>
						<stop  offset="1" style="stop-color:#87C3D5"/>
					</linearGradient>
					<path class="st52" d="M1982.1,452.8c0-163.4-132.4-295.8-295.8-295.8c-12.3,0-24.5,0.8-36.4,2.2
						c115.2,17.9,204.5,142.5,204.5,293.6c0,72.4-20.5,138.7-54.5,190.1h0c-0.6,0.9-1.1,1.7-1.7,2.6c-0.3,0.4-0.5,0.8-0.8,1.2
						c-42.5,63.3-68.3,128.2-70,171.2h93.6c2.1-43,34.8-107.9,88.8-171.2c0.3-0.4,0.7-0.8,1-1.2c0.7-0.9,1.4-1.7,2.2-2.6h0
						C1956.1,591.4,1982.1,525.1,1982.1,452.8z"/>
					<defs>
						<filter id="Adobe_OpacityMaskFilter_2_" filterUnits="userSpaceOnUse" x="1376.1" y="161" width="620.3" height="597.9">
							<feFlood  style="flood-color:white;flood-opacity:1" result="back"/>
							<feBlend  in="SourceGraphic" in2="back" mode="normal"/>
						</filter>
					</defs>
					<mask maskUnits="userSpaceOnUse" x="1376.1" y="161" width="620.3" height="597.9" id="SVGID_33_">
						<g class="st53">
							<defs>
								<filter id="Adobe_OpacityMaskFilter_3_" filterUnits="userSpaceOnUse" x="1376.1" y="161" width="620.3" height="597.9">
									<feFlood  style="flood-color:white;flood-opacity:1" result="back"/>
									<feBlend  in="SourceGraphic" in2="back" mode="normal"/>
								</filter>
							</defs>
							<mask maskUnits="userSpaceOnUse" x="1376.1" y="161" width="620.3" height="597.9" id="SVGID_33_">
								<g class="st54">
								</g>
							</mask>
							<linearGradient id="SVGID_34_" gradientUnits="userSpaceOnUse" x1="3783.5479" y1="-85.8591" x2="722.0096" y2="699.5895">
								<stop  offset="0" style="stop-color:#808080"/>
								<stop  offset="1" style="stop-color:#1A1A1A"/>
							</linearGradient>
							<path class="st55" d="M1996.3,444.1l-502.1,268.3c10.4,16,19.1,31.7,25.9,46.5L1991.6,507c3.2-17.8,4.8-35.9,4.8-54.2
								C1996.4,449.9,1996.4,447,1996.3,444.1z M1905.6,233.5c-32.7-32.7-71.4-57.2-113.6-72.4L1385,378.4
								c-5.9,24-8.9,48.9-8.9,74.3c0,31,4.7,61.6,13.7,90.9l536.9-286.8C1920.1,248.7,1913,240.9,1905.6,233.5z M1949.2,288.1
								l-545.9,291.6c11.5,25.7,26.6,49.9,44.8,71.8c0.2,0.2,0.3,0.4,0.5,0.6c0,0,3,3.5,3.2,3.8c3.7,4.3,7.2,8.6,10.7,13
								l526.9-281.5C1982,352.1,1968.4,318.6,1949.2,288.1z"/>
						</g>
					</mask>
					<linearGradient id="SVGID_35_" gradientUnits="userSpaceOnUse" x1="3783.5479" y1="-85.8591" x2="722.0096" y2="699.5895">
						<stop  offset="0" style="stop-color:#FFFFFF"/>
						<stop  offset="1" style="stop-color:#FFFFFF"/>
					</linearGradient>
					<path class="st56" d="M1996.3,444.1l-502.1,268.3c10.4,16,19.1,31.7,25.9,46.5L1991.6,507c3.2-17.8,4.8-35.9,4.8-54.2
						C1996.4,449.9,1996.4,447,1996.3,444.1z M1905.6,233.5c-32.7-32.7-71.4-57.2-113.6-72.4L1385,378.4c-5.9,24-8.9,48.9-8.9,74.3
						c0,31,4.7,61.6,13.7,90.9l536.9-286.8C1920.1,248.7,1913,240.9,1905.6,233.5z M1949.2,288.1l-545.9,291.6
						c11.5,25.7,26.6,49.9,44.8,71.8c0.2,0.2,0.3,0.4,0.5,0.6c0,0,3,3.5,3.2,3.8c3.7,4.3,7.2,8.6,10.7,13l526.9-281.5
						C1982,352.1,1968.4,318.6,1949.2,288.1z"/>
					<linearGradient id="SVGID_36_" gradientUnits="userSpaceOnUse" x1="1686.2614" y1="365.3861" x2="1686.2614" y2="776.607">
						<stop  offset="0" style="stop-color:#FFFFFF"/>
						<stop  offset="1" style="stop-color:#B6E4EE"/>
					</linearGradient>
					<path class="st57" d="M1551.6,832.1c-7.6,0-13.9-6-14.3-13.6c-2-40.9-34.7-103.2-85.3-162.6c-0.2-0.2-3.2-3.8-3.2-3.8
						c-0.2-0.2-0.3-0.4-0.5-0.6c-46.5-55.6-72.1-126.2-72.1-198.8c0-82.8,32.3-160.7,90.8-219.3c58.6-58.6,136.5-90.8,219.3-90.8
						c82.8,0,160.7,32.3,219.3,90.8s90.8,136.5,90.8,219.3c0,72.6-25.6,143.1-72.1,198.8c-0.2,0.2-0.3,0.4-0.5,0.6
						c0,0-3,3.5-3.2,3.8c-50.6,59.4-83.3,121.7-85.3,162.6c-0.4,7.6-6.7,13.6-14.3,13.6H1551.6z"/>
				</g>
				<g>
					<linearGradient id="SVGID_37_" gradientUnits="userSpaceOnUse" x1="1686.2614" y1="1434.036" x2="1686.2614" y2="1291.9297">
						<stop  offset="0" style="stop-color:#FE9E1A"/>
						<stop  offset="1" style="stop-color:#FF5B00"/>
					</linearGradient>
					<path class="st58" d="M1575.7,1346.7l104.6,118.2c3.3,3.7,8.7,3.7,12,0l104.6-118.2H1575.7z"/>
					<linearGradient id="SVGID_38_" gradientUnits="userSpaceOnUse" x1="1686.2614" y1="1107.8234" x2="1686.2614" y2="1439.6364">
						<stop  offset="0" style="stop-color:#76469F"/>
						<stop  offset="1" style="stop-color:#643E9A"/>
					</linearGradient>
					<polygon class="st59" points="1796.8,1049.7 1575.7,1049.7 1575.7,1346.7 1575.7,1346.7 1575.7,1346.7 1594.6,1368.1 
						1607.7,1353.3 1620.8,1368.1 1633.9,1353.3 1647,1368.1 1660.1,1353.3 1673.2,1368.1 1686.3,1353.3 1699.4,1368.1 
						1712.5,1353.3 1725.6,1368.1 1738.7,1353.3 1751.8,1368.1 1764.9,1353.3 1778,1368.1 1796.8,1346.7 1796.8,1346.7 
						1796.8,1346.7 					"/>
					<linearGradient id="SVGID_39_" gradientUnits="userSpaceOnUse" x1="1686.2623" y1="1340.7175" x2="1686.2623" y2="1486.4253">
						<stop  offset="0" style="stop-color:#0A0E1A"/>
						<stop  offset="1" style="stop-color:#040F2C"/>
					</linearGradient>
					<path class="st60" d="M1660.3,1442.3l20,22.6c3.3,3.7,8.7,3.7,12,0l20-22.6H1660.3z"/>
					<linearGradient id="SVGID_40_" gradientUnits="userSpaceOnUse" x1="1686.2614" y1="1368.442" x2="1686.2614" y2="747.326">
						<stop  offset="0" style="stop-color:#FFFFFF"/>
						<stop  offset="1" style="stop-color:#8E857E"/>
					</linearGradient>
					<path class="st61" d="M1646.7,1367.8l0.2,0.3l13.1-14.8l13.1,14.8l13.1-14.8l13.1,14.8l13.1-14.8l12.9,14.5v-318.1h-78.6
						V1367.8z M1796.8,1049.7h-19.6v317.6l0.7,0.8l18.9-21.3h0h0V1049.7z M1575.7,1346.7L1575.7,1346.7L1575.7,1346.7l18.9,21.3
						l0.2-0.3v-318.1h-19.1V1346.7z"/>
				</g>
				<linearGradient id="SVGID_41_" gradientUnits="userSpaceOnUse" x1="1686.2614" y1="1226.328" x2="1686.2614" y2="929.9412">
					<stop  offset="0" style="stop-color:#FFFFFF"/>
					<stop  offset="1" style="stop-color:#8E857E"/>
				</linearGradient>
				<rect x="1575.7" y="1049.7" class="st62" width="221.2" height="182.2"/>
				<g>
					<linearGradient id="SVGID_42_" gradientUnits="userSpaceOnUse" x1="1683.0421" y1="927.098" x2="1683.0421" y2="1087.7378">
						<stop  offset="0" style="stop-color:#0A0E1A"/>
						<stop  offset="1" style="stop-color:#040F2C"/>
					</linearGradient>
					<path class="st63" d="M1807.6,1039c0,5.9-4.8,10.7-10.7,10.7h-227.6c-5.9,0-10.7-4.8-10.7-10.7v-88.5c0-5.9,4.8-10.7,10.7-10.7
						h227.6c5.9,0,10.7,4.8,10.7,10.7V1039z"/>
					<linearGradient id="SVGID_43_" gradientUnits="userSpaceOnUse" x1="1683.0421" y1="1072.9503" x2="1683.0421" y2="990.4266">
						<stop  offset="0" style="stop-color:#FFFFFF"/>
						<stop  offset="1" style="stop-color:#8E857E"/>
					</linearGradient>
					<path class="st64" d="M1796.8,1031.8h-227.6c-5.9,0-10.7-4.8-10.7-10.7v17.8c0,5.9,4.8,10.7,10.7,10.7h227.6
						c5.9,0,10.7-4.8,10.7-10.7v-17.8C1807.6,1027,1802.7,1031.8,1796.8,1031.8z"/>
					<g>
						<linearGradient id="SVGID_44_" gradientUnits="userSpaceOnUse" x1="1686.2615" y1="779.1608" x2="1686.2615" y2="1059.761">
							<stop  offset="0" style="stop-color:#63BCD8"/>
							<stop  offset="1" style="stop-color:#3D7EB8"/>
						</linearGradient>
						<path class="st65" d="M1847.8,974.2c0,10.5-8.6,19.1-19.1,19.1h-284.8c-10.5,0-19.1-8.6-19.1-19.1V820.4
							c0-10.5,8.6-19.1,19.1-19.1h284.8c10.5,0,19.1,8.6,19.1,19.1V974.2z"/>
						<linearGradient id="SVGID_45_" gradientUnits="userSpaceOnUse" x1="1809.0492" y1="840.5009" x2="1143.8583" y2="1148.2469">
							<stop  offset="0" style="stop-color:#FFFFFF"/>
							<stop  offset="1" style="stop-color:#8E857E"/>
						</linearGradient>
						<path class="st66" d="M1543.9,993.3h25.7l278.2-80.4v-28.4l-322.7,93.3C1526.8,986.6,1534.6,993.3,1543.9,993.3z
							 M1524.7,929.8v28.4l323-93.4v-28.4L1524.7,929.8z M1735.9,993.3l111.9-32.3v-28.4l-209.9,60.7H1735.9z M1828.7,993.3
							c8.1,0,15-5.1,17.8-12.2l-42.3,12.2H1828.7z M1543.9,801.3c-8.1,0-15,5.1-17.8,12.2l42.3-12.2H1543.9z M1828.7,801.3h-25.7
							l-278.2,80.4v28.4l322.7-93.3C1845.7,808,1837.9,801.3,1828.7,801.3z M1636.6,801.3l-111.9,32.3V862l209.9-60.7H1636.6z"/>
						<linearGradient id="SVGID_46_" gradientUnits="userSpaceOnUse" x1="1686.2615" y1="934.3669" x2="1686.2615" y2="1094.3243">
							<stop  offset="0" style="stop-color:#FFFFFF"/>
							<stop  offset="1" style="stop-color:#8E857E"/>
						</linearGradient>
						<path class="st67" d="M1828.7,973.2h-284.8c-10.5,0-19.1-8.6-19.1-19.1v20.1c0,10.5,8.6,19.1,19.1,19.1h284.8
							c10.5,0,19.1-8.6,19.1-19.1v-20.1C1847.8,964.6,1839.2,973.2,1828.7,973.2z"/>
					</g>
				</g>
			</g>
			<g>
				<g>
					<path class="st20" d="M1827,812.8c-3.2-5.2-14.8-20.8-19-16.8c-3.2,3.1-1.3,12.8,1.9,18.2c1.1,1.9,8.3,4.3,7.8,17.4
						c-0.4,9.4,13.9,8.9,13.9,8.9S1833.7,823.6,1827,812.8z"/>
					<path class="st20" d="M2006.8,922.2c-48.1-2.7-155.2-47.3-176.2-55.9c-10.7-4.4-17.8,2.7-39.1-6.4c-7.9-3.4-16.2-9.3-17.9-18.7
						c-1.7-9.3,12.8-32.6,22.9-35.7c8.3-2.5,35,16.5,38.2,36.7c11,6.9,125.5,29.7,157.9,36.5c14.6,3.1,44.6-1.5,37.3,15.3
						C2021.4,913.4,2024.6,923.2,2006.8,922.2z"/>
				</g>
				<g>
					<path class="st20" d="M2038.3,857.5c0,0-37.4,30.4-46.8,41.4c-6.8,7.9,4.9,16.4,12,21.7c7.1,5.3,38.8-4.2,61.7-20.3
						C2082.6,888,2042.4,857,2038.3,857.5z"/>
					
						<linearGradient id="SVGID_47_" gradientUnits="userSpaceOnUse" x1="-215.761" y1="3014.7043" x2="78.8401" y2="3202.2639" gradientTransform="matrix(0.5407 -0.8412 0.8412 0.5407 -543.2545 -847.5988)">
						<stop  offset="0" style="stop-color:#FE1B00"/>
						<stop  offset="0.1597" style="stop-color:#FE2002"/>
						<stop  offset="0.3377" style="stop-color:#FE2E05"/>
						<stop  offset="0.5245" style="stop-color:#FE4409"/>
						<stop  offset="0.7173" style="stop-color:#FE620E"/>
						<stop  offset="0.913" style="stop-color:#FE8A15"/>
						<stop  offset="1" style="stop-color:#FE9E1B"/>
					</linearGradient>
					<path class="st68" d="M2158.5,770c-36.1,17.3-145.9,96.9-145.9,96.9s-0.8,13.2,12.4,35.6c19.9,33.6,35.8,39.2,35.8,39.2
						s83.2-36.3,136.6-66.1c42.3-23.6,56.5-68.4,33.8-98.5C2212.5,752.4,2178.7,760.3,2158.5,770z"/>
				</g>
			</g>
		</g>
	</g>
</g>
</svg>
